<?xml version="1.0" encoding="UTF-8"?><svg width="100%" xmlns="http://www.w3.org/2000/svg" xmlns:xlink="http://www.w3.org/1999/xlink" viewBox="0 0 807.6 370.4"><defs><linearGradient id="b" x1="128.1" y1="274.4" x2="399.3" y2="274.4" gradientTransform="translate(125.5 -205.3) rotate(35.8)" gradientUnits="userSpaceOnUse"><stop offset="0" stop-color="#ff7bac"/><stop offset=".2" stop-color="#ff7bac" stop-opacity=".8"/><stop offset=".6" stop-color="#ff7bac" stop-opacity=".4"/><stop offset=".9" stop-color="#ff7bac" stop-opacity="0"/><stop offset="1" stop-color="#ff7bac" stop-opacity="0"/></linearGradient></defs><path d="M0,256.6C3.2,234.8,26.2,91.8,146.4,27.9,180.3,10,213.4,2.7,240.5,0l-1.3,88.1.2-.5,83.6-29.8c5.9,26.7,9.3,60.7,2.7,98.8-23.5,135.5-152.8,203.7-172.6,213.7L0,256.6Z" fill="url(#b)"/><path d="M245.6,144.1v-1.4c0-1,.2-1.7.6-2.1.4-.4.9-.6,1.5-.6s1.1.2,1.5.6c.4.4.6,1.1.6,2.1v10.7c0,1-.2,1.7-.6,2.1-.4.4-.9.6-1.5.6s-1.1-.2-1.5-.6c-.4-.4-.6-1-.6-1.9-.2-2.8-1.6-5.3-4.3-7.5-2.7-2.2-6.3-3.3-10.7-3.3s-8.3,1.2-11,3.6c-2.7,2.4-4.1,5.2-4.1,8.4s.4,3.2,1.1,4.5c.8,1.4,1.8,2.5,3,3.3,1.3.8,2.7,1.5,4.3,2,1.6.5,4.1,1.1,7.5,1.6,5.7.9,9.6,1.9,11.8,2.8,2.9,1.3,5.1,3.1,6.6,5.4,1.5,2.3,2.2,5,2.2,8.1,0,4.8-1.9,8.9-5.7,12.3-3.8,3.4-9,5.1-15.5,5.1s-13.1-2.3-17.5-6.8v2.4c0,1-.2,1.7-.6,2.1-.4.4-.9.6-1.5.6s-1.1-.2-1.5-.6c-.4-.4-.6-1.1-.6-2.1v-11.6c0-1,.2-1.8.6-2.2.4-.4.9-.6,1.5-.6s1.1.2,1.5.6c.4.4.6,1,.6,1.9.2,3.1,1.8,5.8,4.9,8.4,3.1,2.5,7.3,3.8,12.6,3.8s9.4-1.3,12.5-3.9c3-2.6,4.6-5.7,4.6-9.3s-.6-4.2-1.7-5.9c-1.2-1.7-2.9-3.1-5.2-4.1-1.6-.7-4.9-1.5-10-2.3-7-1.2-12-2.9-15-5.3-3.1-2.4-4.6-5.8-4.6-10.2s1.8-8.2,5.3-11.3c3.5-3.2,8.1-4.7,13.9-4.7s10.9,1.8,15.1,5.5Z" stroke="#000" stroke-miterlimit="10" stroke-width=".5"/><path d="M304,198.3v-6c-6.1,5.1-12.6,7.7-19.5,7.7s-9-1.3-11.8-3.8c-2.8-2.5-4.2-5.7-4.2-9.4s1.9-7.6,5.6-10.6c3.7-3,9.2-4.5,16.3-4.5s4,.1,6.3.4c2.3.2,4.7.6,7.3,1.2v-6.8c0-2.3-1.1-4.3-3.2-6-2.1-1.7-5.3-2.5-9.6-2.5s-7.8.9-13.7,2.8c-1.1.3-1.7.5-2,.5-.5,0-1-.2-1.4-.6-.4-.4-.6-.9-.6-1.5s.2-1,.5-1.3c.5-.5,2.3-1.2,5.6-2,5.2-1.4,9.1-2.1,11.8-2.1,5.3,0,9.4,1.3,12.4,3.9,3,2.6,4.4,5.6,4.4,8.9v27.7h5.6c1,0,1.8.2,2.2.6.4.4.6.9.6,1.5s-.2,1.1-.6,1.5c-.4.4-1.2.6-2.2.6h-9.8ZM304,177.4c-2-.6-4-1-6.2-1.2-2.2-.3-4.5-.4-6.9-.4-6.1,0-10.8,1.3-14.3,3.9-2.6,2-3.9,4.3-3.9,7s1,4.7,3,6.4c2,1.7,4.9,2.6,8.7,2.6s7-.7,10.1-2.2c3.1-1.4,6.3-3.8,9.6-6.9v-9.2Z" stroke="#000" stroke-miterlimit="10" stroke-width=".5"/><path d="M344.8,179.6v18.7h-9.8c-1,0-1.7-.2-2.1-.6-.4-.4-.6-.9-.6-1.5s.2-1.1.6-1.5c.4-.4,1.1-.6,2.1-.6h5.6v-54.2h-5.6c-1,0-1.7-.2-2.1-.6-.4-.4-.6-.9-.6-1.5s.2-1.1.6-1.5c.4-.4,1.1-.6,2.1-.6h9.8v38.6l17.8-15h-2.1c-1,0-1.7-.2-2.1-.6-.4-.4-.6-.9-.6-1.5s.2-1.1.6-1.5c.4-.4,1.1-.6,2.1-.6h13.4c1,0,1.8.2,2.2.6.4.4.6.9.6,1.5s-.2,1.1-.6,1.5c-.4.4-1.2.6-2.2.6h-4.8l-16.4,13.7,20.7,21.1h4.8c1,0,1.8.2,2.2.6.4.4.6.9.6,1.5s-.2,1.1-.6,1.5c-.4.4-1.2.6-2.2.6h-13.6c-1,0-1.7-.2-2.1-.6-.4-.4-.6-.9-.6-1.5s.2-1.1.6-1.5c.4-.4,1.1-.6,2.1-.6h2.9l-18-18.5-4.8,4Z" stroke="#000" stroke-miterlimit="10" stroke-width=".5"/><path d="M429,198.3v-6.1c-5.7,5.2-11.9,7.8-18.6,7.8s-7.2-1.1-9.3-3.3c-2.8-2.9-4.1-6.3-4.1-10.2v-27h-5.6c-1,0-1.7-.2-2.1-.6-.4-.4-.6-.9-.6-1.5s.2-1.1.6-1.5c.4-.4,1.1-.6,2.1-.6h9.8v31.3c0,2.7.9,5,2.6,6.7,1.7,1.8,3.9,2.6,6.5,2.6,6.8,0,13.1-3.1,18.8-9.4v-27h-7.7c-1,0-1.7-.2-2.1-.6-.4-.4-.6-.9-.6-1.5s.2-1.1.6-1.5c.4-.4,1.1-.6,2.1-.6h11.9v39h3.5c1,0,1.7.2,2.1.6.4.4.6.9.6,1.5s-.2,1.1-.6,1.5c-.4.4-1.1.6-2.1.6h-7.7Z" stroke="#000" stroke-miterlimit="10" stroke-width=".5"/><path d="M470.9,155.1v10.6c5.5-4.9,9.5-8.1,12.3-9.5,2.7-1.4,5.2-2.1,7.5-2.1s4.8.8,7,2.5c2.1,1.7,3.2,3,3.2,3.8s-.2,1.2-.6,1.6c-.4.4-.9.6-1.6.6s-.6,0-.8-.2c-.2-.1-.7-.5-1.3-1.1-1.2-1.2-2.2-2-3-2.4-.9-.4-1.7-.6-2.5-.6-1.8,0-4,.7-6.6,2.2-2.6,1.5-7,5-13.4,10.7v23h18.6c1,0,1.8.2,2.2.6.4.4.6.9.6,1.5s-.2,1.1-.6,1.5c-.4.4-1.2.6-2.2.6h-32.9c-1,0-1.7-.2-2.1-.6-.4-.4-.6-.9-.6-1.5s.2-1,.6-1.4c.4-.4,1.1-.6,2.2-.6h10.1v-34.9h-7.7c-1,0-1.7-.2-2.1-.6-.4-.4-.6-.9-.6-1.5s.2-1.1.6-1.5c.4-.4,1.1-.6,2.2-.6h11.9Z" stroke="#000" stroke-miterlimit="10" stroke-width=".5"/><path d="M549.3,198.3v-6c-6.1,5.1-12.6,7.7-19.5,7.7s-9-1.3-11.8-3.8c-2.8-2.5-4.2-5.7-4.2-9.4s1.9-7.6,5.6-10.6c3.7-3,9.2-4.5,16.3-4.5s4,.1,6.3.4,4.7.6,7.3,1.2v-6.8c0-2.3-1.1-4.3-3.2-6-2.1-1.7-5.3-2.5-9.6-2.5s-7.8.9-13.7,2.8c-1.1.3-1.7.5-2,.5-.5,0-1-.2-1.4-.6-.4-.4-.6-.9-.6-1.5s.2-1,.5-1.3c.5-.5,2.3-1.2,5.6-2,5.2-1.4,9.1-2.1,11.8-2.1,5.3,0,9.4,1.3,12.4,3.9,3,2.6,4.4,5.6,4.4,8.9v27.7h5.6c1,0,1.8.2,2.2.6.4.4.6.9.6,1.5s-.2,1.1-.6,1.5c-.4.4-1.2.6-2.2.6h-9.8ZM549.3,177.4c-2-.6-4-1-6.2-1.2-2.2-.3-4.5-.4-6.9-.4-6.1,0-10.8,1.3-14.3,3.9-2.6,2-3.9,4.3-3.9,7s1,4.7,3,6.4c2,1.7,4.9,2.6,8.7,2.6s7-.7,10.1-2.2c3.1-1.4,6.3-3.8,9.6-6.9v-9.2Z" stroke="#000" stroke-miterlimit="10" stroke-width=".5"/><path d="M598.9,198.3l-19.5-39h-1.2c-1,0-1.7-.2-2.1-.6-.4-.4-.6-.9-.6-1.5s.1-.8.3-1.2c.2-.3.5-.6.8-.7.3-.1.9-.2,1.6-.2h11.5c1,0,1.7.2,2.1.6s.6.9.6,1.5-.2,1.1-.6,1.5c-.4.4-1.1.6-2.1.6h-5.6l17.1,34.4,16.9-34.4h-5.6c-1,0-1.7-.2-2.1-.6-.4-.4-.6-.9-.6-1.5s.2-1.1.6-1.5c.4-.4,1.1-.6,2.1-.6h11.4c1,0,1.8.2,2.2.6.4.4.6.9.6,1.5s-.1.8-.4,1.2c-.3.4-.6.6-.9.7-.3.1-1.3.2-2.8.2l-26.6,54h6.5c1,0,1.7.2,2.1.6.4.4.6.9.6,1.5s-.2,1.1-.6,1.5c-.4.4-1.1.6-2.1.6h-24.2c-1,0-1.7-.2-2.1-.6-.4-.4-.6-.9-.6-1.5s.2-1.1.6-1.5c.4-.4,1.1-.6,2.1-.6h13.1l7.4-15.1Z" stroke="#000" stroke-miterlimit="10" stroke-width=".5"/><path d="M672,198.3v-6c-6.1,5.1-12.6,7.7-19.5,7.7s-9-1.3-11.8-3.8c-2.8-2.5-4.2-5.7-4.2-9.4s1.9-7.6,5.6-10.6c3.7-3,9.2-4.5,16.3-4.5s4,.1,6.3.4,4.7.6,7.3,1.2v-6.8c0-2.3-1.1-4.3-3.2-6-2.1-1.7-5.3-2.5-9.6-2.5s-7.8.9-13.7,2.8c-1.1.3-1.7.5-2,.5-.5,0-1-.2-1.4-.6-.4-.4-.6-.9-.6-1.5s.2-1,.5-1.3c.5-.5,2.3-1.2,5.6-2,5.2-1.4,9.1-2.1,11.8-2.1,5.3,0,9.4,1.3,12.4,3.9,3,2.6,4.4,5.6,4.4,8.9v27.7h5.6c1,0,1.8.2,2.2.6.4.4.6.9.6,1.5s-.2,1.1-.6,1.5c-.4.4-1.2.6-2.2.6h-9.8ZM672,177.4c-2-.6-4-1-6.2-1.2-2.2-.3-4.5-.4-6.9-.4-6.1,0-10.8,1.3-14.3,3.9-2.6,2-3.9,4.3-3.9,7s1,4.7,3,6.4c2,1.7,4.9,2.6,8.7,2.6s7-.7,10.1-2.2c3.1-1.4,6.3-3.8,9.6-6.9v-9.2Z" stroke="#000" stroke-miterlimit="10" stroke-width=".5"/><path d="M702.2,155.1v4.2c3.6-3.8,7.1-5.7,10.7-5.7s4.1.6,5.7,1.7c1.6,1.1,3,2.9,4.1,5.2,1.9-2.3,3.8-4.1,5.7-5.2,1.9-1.1,3.8-1.7,5.8-1.7,3,0,5.4,1,7.2,2.9,2.4,2.5,3.5,5.3,3.5,8.3v29.3h3.5c1,0,1.7.2,2.1.6.4.4.6.9.6,1.5s-.2,1.1-.6,1.5c-.4.4-1.1.6-2.1.6h-7.7v-33.1c0-2.1-.6-3.9-1.9-5.3s-2.8-2.1-4.5-2.1-3.1.6-4.8,1.7c-1.7,1.1-3.6,3.4-5.8,6.8v27.8h3.5c1,0,1.7.2,2.1.6.4.4.6.9.6,1.5s-.2,1.1-.6,1.5c-.4.4-1.1.6-2.1.6h-7.7v-32.8c0-2.2-.7-4.1-2-5.5-1.3-1.4-2.8-2.2-4.4-2.2s-3,.5-4.4,1.4c-2,1.4-4.2,3.7-6.4,7v27.8h3.5c1,0,1.7.2,2.1.6.4.4.6.9.6,1.5s-.2,1.1-.6,1.5c-.4.4-1.1.6-2.1.6h-11.3c-1,0-1.7-.2-2.1-.6-.4-.4-.6-.9-.6-1.5s.2-1.1.6-1.5c.4-.4,1.1-.6,2.1-.6h3.5v-34.8h-3.5c-1,0-1.7-.2-2.1-.6-.4-.4-.6-.9-.6-1.5s.2-1.1.6-1.5c.4-.4,1.1-.6,2.1-.6h7.7Z" stroke="#000" stroke-miterlimit="10" stroke-width=".5"/><path d="M794.7,198.3v-6c-6.1,5.1-12.6,7.7-19.5,7.7s-9-1.3-11.8-3.8c-2.8-2.5-4.2-5.7-4.2-9.4s1.9-7.6,5.6-10.6c3.7-3,9.2-4.5,16.3-4.5s4,.1,6.3.4,4.7.6,7.3,1.2v-6.8c0-2.3-1.1-4.3-3.2-6-2.1-1.7-5.3-2.5-9.6-2.5s-7.8.9-13.7,2.8c-1.1.3-1.7.5-2,.5-.5,0-1-.2-1.4-.6-.4-.4-.6-.9-.6-1.5s.2-1,.5-1.3c.5-.5,2.3-1.2,5.6-2,5.2-1.4,9.1-2.1,11.8-2.1,5.3,0,9.4,1.3,12.4,3.9,3,2.6,4.4,5.6,4.4,8.9v27.7h5.6c1,0,1.8.2,2.2.6.4.4.6.9.6,1.5s-.2,1.1-.6,1.5c-.4.4-1.2.6-2.2.6h-9.8ZM794.7,177.4c-2-.6-4-1-6.2-1.2-2.2-.3-4.5-.4-6.9-.4-6.1,0-10.8,1.3-14.3,3.9-2.6,2-3.9,4.3-3.9,7s1,4.7,3,6.4c2,1.7,4.9,2.6,8.7,2.6s7-.7,10.1-2.2c3.1-1.4,6.3-3.8,9.6-6.9v-9.2Z" stroke="#000" stroke-miterlimit="10" stroke-width=".5"/><path d="M236.9,253.8v50h10.9c1,0,1.7.2,2.1.6.4.4.6.9.6,1.5s-.2,1.1-.6,1.5c-.4.4-1.1.6-2.1.6h-26c-1,0-1.7-.2-2.1-.6-.4-.4-.6-.9-.6-1.5s.2-1.1.6-1.5c.4-.4,1.1-.6,2.1-.6h10.9v-50h-17.2v14.5c0,1-.2,1.8-.6,2.2-.4.4-.9.6-1.5.6s-1.1-.2-1.5-.6c-.4-.4-.6-1.2-.6-2.2v-18.7h47v18.7c0,1-.2,1.8-.6,2.2-.4.4-.9.6-1.5.6s-1.1-.2-1.5-.6c-.4-.4-.6-1.2-.6-2.2v-14.5h-17.2Z" stroke="#000" stroke-miterlimit="10" stroke-width=".5"/><path d="M319.6,286.5c0,6.4-2.3,11.8-6.9,16.4-4.6,4.5-10.1,6.8-16.5,6.8s-12.1-2.3-16.6-6.8c-4.6-4.5-6.8-10-6.8-16.3s2.3-11.9,6.8-16.4c4.6-4.5,10.1-6.8,16.6-6.8s12,2.3,16.5,6.8c4.6,4.5,6.9,10,6.9,16.4ZM315.3,286.5c0-5.3-1.9-9.7-5.6-13.4-3.7-3.7-8.3-5.5-13.6-5.5s-9.9,1.9-13.6,5.6c-3.7,3.7-5.6,8.2-5.6,13.4s1.9,9.6,5.6,13.4c3.7,3.7,8.3,5.6,13.6,5.6s9.9-1.9,13.6-5.6c3.7-3.7,5.6-8.2,5.6-13.4Z" stroke="#000" stroke-miterlimit="10" stroke-width=".5"/><path d="M371.9,308h-5.2s-9.2-26.9-9.2-26.9l-9.2,27h-5.2s-8.7-39-8.7-39h-2c-1,0-1.7-.2-2.1-.6-.4-.4-.6-.9-.6-1.5s.2-1.1.6-1.5c.4-.4,1.1-.6,2.1-.6h11.5c1,0,1.7.2,2.1.6.4.4.6.9.6,1.5s-.2,1.1-.6,1.5c-.4.4-1.1.6-2.1.6h-5.3l7.4,33.2,8.9-26.6h5l9.2,26.6,7.1-33.2h-5.3c-1,0-1.7-.2-2.2-.6-.4-.4-.7-.9-.7-1.5s.2-1.1.6-1.5c.4-.4,1.2-.6,2.2-.6h11.5c1,0,1.8.2,2.2.6.4.4.6.9.6,1.5s-.2,1.1-.6,1.5c-.4.4-1.2.6-2.2.6h-2l-8.5,39Z" stroke="#000" stroke-miterlimit="10" stroke-width=".5"/><path d="M405.3,264.7v6.3c2.9-3,5.6-5,7.9-6.1,2.4-1.1,5-1.7,8-1.7s6.1.7,8.7,2c1.9,1,3.6,2.7,5.1,5,1.5,2.3,2.3,4.7,2.3,7.1v26.4h3.5c1,0,1.7.2,2.1.6s.6.9.6,1.5-.2,1.1-.6,1.5c-.4.4-1.1.6-2.1.6h-11.2c-1,0-1.8-.2-2.2-.6-.4-.4-.6-.9-.6-1.5s.2-1.1.6-1.5c.4-.4,1.2-.6,2.2-.6h3.5v-25.7c0-3-1.1-5.5-3.2-7.5-2.2-2-5.1-3.1-8.7-3.1s-5.2.6-7.2,1.7c-2,1.1-4.9,3.9-8.7,8.3v26.3h4.7c1,0,1.7.2,2.1.6.4.4.6.9.6,1.5s-.2,1.1-.6,1.5c-.4.4-1.1.6-2.1.6h-13.7c-1,0-1.7-.2-2.1-.6-.4-.4-.6-.9-.6-1.5s.2-1.1.6-1.5c.4-.4,1.1-.6,2.1-.6h4.7v-34.8h-3.5c-1,0-1.7-.2-2.1-.6-.4-.4-.6-.9-.6-1.5s.2-1.1.6-1.5c.4-.4,1.1-.6,2.1-.6h7.7Z" stroke="#000" stroke-miterlimit="10" stroke-width=".5"/></svg>
