<?xml version="1.0" encoding="UTF-8"?><svg id="a" xmlns="http://www.w3.org/2000/svg" xmlns:xlink="http://www.w3.org/1999/xlink" viewBox="0 0 1081.8 783.8"><defs><linearGradient id="b" x1="0" y1="391.9" x2="1081.8" y2="391.9" gradientUnits="userSpaceOnUse"><stop offset="0" stop-color="#ff7bac"/><stop offset=".2" stop-color="#ff7bac" stop-opacity=".8"/><stop offset=".6" stop-color="#ff7bac" stop-opacity=".4"/><stop offset=".9" stop-color="#ff7bac" stop-opacity="0"/><stop offset="1" stop-color="#ff7bac" stop-opacity="0"/></linearGradient><linearGradient id="d" x1="818.6" y1="134.6" x2="876.3" y2="367.5" gradientUnits="userSpaceOnUse"><stop offset="0" stop-color="#78aad3"/><stop offset="1" stop-color="#5391c4"/></linearGradient><linearGradient id="e" x1="439.8" y1="267.2" x2="458.8" y2="373.8" gradientUnits="userSpaceOnUse"><stop offset="0" stop-color="#7fb2da"/><stop offset="1" stop-color="#5695c9"/></linearGradient></defs><rect width="1081.8" height="783.8" fill="url(#b)"/><g id="c"><path d="M662.4,237.1c6.3,5.9,9.7,13.6,9.7,23v45.9c.1,0,0,59.2,0,59.2,0,10.4-3.6,21.7-15.8,21.6l-23.3-.2c-2.3,0-4.2-.3-6-.9-.8-5.3,3-10.3,9.1-10.1s9.8.2,14.8,0,8.3-4,8.3-8.8v-24.5c0-.4-1.7-.5-1.3-1,1.2-.2,1.6-1.2,1.4-2.2s.3-2.6-.9-2.6l-31.6-.3c-7,0-7.3-7.9-7.1-12.1h39.5c0,0,.1-24.4.1-24.4,0-.6-.3-1.2-.4-1.5s-.7.1-1-.1c-.4-.5,0-.9,1.1-.7.1-2.6.8-5.5-.2-8.7-2.3.8-2.8,2.9-4.9,3.9-9.7.1-19.5.2-29.3-.1s-5.2-7.6-4.8-11.2l39.6-.3c0-8,0-15.7-.4-23.3s.8-4.5-1.4-6.5-3.8-2.3-6.7-2.3h-105.7c-3.3,0-6.2,3.2-6.2,6.5v122.8c0,3.4-1.7,5.7-3.8,6.9-4.6,2.8-8.2-1.5-8.8-.6l-.3-126.9c0-11.6,8.3-21.6,20.7-21.6h110.3c2.4,0,3.8.5,5.4.9Z" fill="#73aedb"/><path d="M658.9,257.7c-1.8-1-3-3.4-5.7-3.4h-41.4c0,0,0,26.9,0,26.9,3,.3,5.5.2,7.9.2-.4,3.7-1.2,11,4.8,11.2,9.8.4,19.6.3,29.3.1,2.1-1,2.5-3.2,4.9-3.9,1,3.1.4,6,.2,8.7-1-.2-1.5.2-1.1.7h-46.1s0,25.8,0,25.8c3.1.1,5.5.2,8,.2-.1,4.2.2,12,7.1,12.1l31.6.3c1.2,0,.8,2,.9,2.6.3,1-.1,1.9-1.4,2.2l-46.2.2-.3,44.5c0,5.8-6.2,9.4-11.3,8.6s-7.9-5.3-7.9-10.5c2,1.2,5.2,1.9,7.5,1s4.4-3,4.4-6l.4-114.3c0-3.6-1.4-6-5.1-6.4s-4.9.4-7.2.8c0-1.4,0-2.9-.5-5h-40.4c-3.4,0-5.1,2.7-5.1,5.8l.2,21.1,7.2.2c-.8,1.8.5,11.2,5,11.3l33.1.4c1.4,1.1,0,4,.1,5.3h-45.4c0,.1.1,25.7.1,25.7,2.2,0,3.9.3,5.6.3-1.4,2.3-.2,9.2,1,10.7s2.5,1.3,4.5,1.4l33.8.3c1.2.7,1.3,4.6-.4,4.7l-44.7.3v45.5c-.1,6.1-6.5,9.6-11.1,9-6.7-.9-8.9-5.9-8.9-11.4.7-1,4.3,3.4,8.8.6s3.7-3.5,3.7-6.9v-122.8c0-3.3,2.9-6.6,6.3-6.6h105.7c3,0,4.9.6,6.7,2.3s1.3,4.3,1.4,6.5Z" fill="#528ec3"/><path d="M592.2,384.1l-.2-41.5c0-.7-1.3-.8-1.1-1.4,1.7,0,1.7-4,.4-4.7l-33.8-.3c-1.9,0-3.6-.3-4.5-1.4s-2.4-8.4-1-10.7h39.9c.2-7.5.3-20.1-.2-26s1.3-4.1-.1-5.3l-33.1-.4c-4.5,0-5.9-9.4-5-11.3h38s.6-22,.6-22c2.3-.4,4.7-1,7.2-.8,3.7.4,5.1,2.7,5.1,6.4l-.4,114.3c0,3-2.5,5.3-4.4,6s-5.5.2-7.5-1Z" fill="#6faad8"/><path d="M678.7,254.4l.2,119.2c0,10.7-8.7,19.9-18.8,20.7-8.1.7-15.9,0-24,.1s-8.4-4.4-9.1-8.8c1.8.7,3.7.9,6,.9l23.3.2c12.2,0,15.8-11.2,15.8-21.6l.2-59.2c.6,0,4.4.8,4.5-.8.7-11.8.2-23.3.2-34.9,0-2.1-.8-3.9,0-6,1.4-3.2-1.1-11,1.6-9.9Z" fill="#4681b7"/><path d="M678.7,254.4c-2.7-1.2-.3,6.7-1.6,9.9s0,3.9,0,6c0,11.7.5,23.1-.2,34.9,0,1.6-3.9.8-4.5.8v-45.9c-.2-9.4-3.5-17.1-9.9-23,7.4,1.8,16.2,8.8,16.2,17.3Z" fill="#5490c5"/><path d="M855.8,119c-1.7-.1-.9,1.7-.9,3.1l-.2,73.3v125.9s-.4,59.3-.4,59.3c0,3.8-5.6,5.5-8.1,5.3s-5.7-2.5-7.7-5.1v-77.4c-.1,0-.1-22.4-.1-22.4v-85.8c.1,4.8,2.5-23.5,0-23.1v-43c0-4.4,2.3-8.1,5.5-10.1s8.6-2.4,11.8,0Z" fill="url(#d)"/><path d="M862.8,172.9v21.8c-.1,0,0,86.4,0,86.4v21.8s-.1,83.2-.1,83.2c0,6.9-4.8,11.9-11.1,12.5s-12.1-4.2-12.9-10.9,0-4.5,0-6.9c2,2.6,4.5,5,7.7,5.1s8.1-1.5,8.1-5.3l.4-59.3c1.8.3,3.6-.5,5.8-.5l.7-18c.1-3.3.9-6.8.3-9.7s-.4-4.7-.2-7.4-.8-7.1-.8-11.2v-54.8s.3-12.7.3-12.7c0-3.9-.7-7.8.2-11.6s.5-9.9.6-13.1v-6.1c.2-1.6-.9-4.4-1-6.6l-.2-41.4c0-.8.9-1.1.6-1.7s-1-.3-1.4-.8c2.3-2.3-3.4-4.3-3.2-6.1,4.4,1.4,6,7,6,11.8l.2,41.4Z" fill="#3f7bb1"/><path d="M856.5,119.6c-.2,1.7,5.5,3.8,3.2,6.1.4.6,1.1.4,1.4.8s-.6.9-.6,1.7l.2,41.4c0,2.2,1.1,5,1.1,6.6v6.1c-.2,3.2,0,10.3-.7,13.1s-.1,7.7-.2,11.6l-.3,12.7v54.8c0,4.1,1.2,7.8.9,11.2s-.3,4.8.2,7.4-.2,6.4-.3,9.7l-.7,18c-2.2,0-4,.9-5.8.5v-125.9s.2-73.3.2-73.3c0-1.4-.8-3.2.9-3.1.3-.1.7.1.8.6Z" fill="#4f89bd"/><path d="M957.2,174.2c6.5,4.3,10.4,12.4,10.4,20.6l-.3,79.9c0,10.9-9,20-19.5,20h-57.6c-4.2,0-3.6-11.1-2.5-12.9,18-.9,36-.5,54.6-.4s4.7.4,5.5-1.9c.2,0,.5-.1.7,0,.6.3.9-.2.8-.8,3.8-2.4,6.3-6.5,6.3-11.6l-.4-65.2c0-9.3-8.3-15.2-16.8-15.2h-40.6c-3.3,0-5.9-1.9-6.8-5.3s-.2-5.5.5-7.9l63.9-.5c.4.9,1.4,1,1.7,1.2Z" fill="#cdcccd"/><path d="M818.4,173.3c2.3,4,1.2,12.5-4.7,12.6l-56.2.8c-6.5,0-13.3,4.3-13.7,12-1.1,22.5-.5,44.8,0,67.4.2,7.6,6,13.4,12.4,14.3s3.5.9,6.1.9l56.8.2.6,5.8c.3,3-1.5,7.3-5.3,7.3l-61.4-.3c-11.7,0-19.8-9.9-19.8-21.2v-75.5c0-5.2.4-9.6,1.7-14.1s2.4-3.8,4.5-5.7c4.1-3.8,9.2-3.7,14.1-4.5,5.1-.8,10.2.2,15.1.3l9.1.2c3.2,0,5.9-.3,8.8-.6,10.7-1,21.4-.3,31.8-.1Z" fill="#e2e1e1"/><path d="M868.2,302.9c-1.1-7.1-.4-14.4-.6-21.6,6.7-1.2,13.7.8,20.1.5-1.1,1.8-1.7,12.9,2.5,12.9h57.6c10.5,0,19.5-9,19.5-19.9l.3-79.9c0-8.2-3.8-16.4-10.4-20.6.1-.2,0-1.1.6-1,10.8,2.4,18.3,11.7,18.3,23l-.3,85.6c0,11.6-10.4,21.1-21.8,21.1h-85.8Z" fill="#b9b8b8"/><path d="M833.2,173.3c0,6.9.8,13.9-.7,20.6l-71.8.4c-4.8,0-8.8,4.6-8.8,9l-.3,63.6.9,4c.9,3.8.8,7.3,3.6,9.5-6.4-.9-12.2-6.8-12.4-14.3-.5-22.6-1-45,0-67.4s7.2-11.9,13.7-12l56.2-.8c5.9,0,6.9-8.6,4.7-12.6,4.8,0,9.9-1.1,14.8,0Z" fill="#d1d0d0"/><path d="M891.6,173.4c-.7,2.3-1.2,5.1-.5,7.9s3.5,5.2,6.8,5.2h40.6c8.5,0,16.8,5.9,16.8,15.2l.4,65.2c0,5.1-2.5,9.2-6.3,11.6s-1,.1-.8.8c-.2-.1-.5,0-.7,0,1.1-3.1,3.9-5.4,3.9-9.2l-.2-66.9c0-5.5-6-8.6-10.8-8.6h-73.1c0,0,0-21.8,0-21.8,8-1.3,16.4.6,24.1.5Z" fill="#bbb9b9"/><path d="M819.1,281.6c4.6,0,9.5-1.3,14,0-.4,4.5.5,9.2-.3,14.1s-1.5,3.4-.7,6c-1.8.4-3,.1-4.4.3-2.7.3-5.5,1.3-8.6.3s-21.8-.2-22.5,0c-2.5.9-4.7,0-7.2,0-8.8-.4-17.4-.2-26.3,0s-9.1,1.5-13-.3-3.1.2-4.8-.8c-2.6-1.5-5.4-2.6-7.7-4.8-5.7-5.2-7.6-12.9-7.6-20.8v-14.9s-.3-57-.3-57c0-4-1-6.6,1.1-11.2s.7-7.8,4.3-8.9c-1.3,4.5-1.8,8.9-1.8,14.1v75.5c0,11.2,8.1,21.1,19.9,21.2l61.4.3c3.8,0,5.6-4.3,5.3-7.3l-.6-5.8Z" fill="#d1d0d0"/><path d="M838.5,195.2l-6-1.2c1.5-6.7.7-13.8.7-20.6l5.3-1.2c2.4-.5,0,27.8,0,23.1Z" fill="#afb1b2"/><path d="M838.4,281v22.4c-.6-1.6-11.8.6-10.7-1.4,1.4-.2,2.6,0,4.4-.3-.8-2.6.4-4.2.7-6,.8-4.9,0-9.6.3-14.1,1.5-1.3,3.5-.3,5.2-.7Z" fill="#b0afae"/><path d="M867.5,281.2c.2,7.2-.4,14.5.6,21.6-1.8,0-3.7.5-5.5,0v-21.8c1.6-.2,3.3.4,4.8,0Z" fill="#98999b"/><path d="M867.5,172.9v21.8c-1.6,0-3.2.2-4.9,0v-21.8c1.7-.4,3.4.3,4.9,0Z" fill="#9f9f9e"/><path d="M470.8,377.8c.9.9.3,3,1.5,3.9,4.4,3,10,.7,13.2-3.5,2.7-3.5,4.4-7.7,5.8-12,6.9-20.5,10-42,11.8-63.4l.7-8.5-.2-76.8c0-6.3,5.1-9.6,10.9-9.6h101.9s61.6.2,61.6.2c2.9,0,5.1-.6,6.6-2.7s1.4-4.6.9-7.1c4.7.9,6.7,6.4,5.4,11.1s-4.6,7.5-9.3,7.5h-163.2c-4.1.1-6.6,3.7-6.6,7.4l-.3,49.8c-.2,32.4-7.6,81.7-20.4,111.5-2.4,5.6-9.4,7.5-14.6,5.2s-7.9-7.6-5.8-13Z" fill="#528fc4"/><path d="M614.2,196.9c1.5,3.2,1.2,9.3,2.3,10.9h-101.9c-5.8,0-11,3.3-10.9,9.5l.2,76.8-.7,8.5c-.4,0-.6,0-.8.2-2.1,1,5.7,4.1-13.6,3,1.4-13.6,1.5-26.8,1.7-40.5.2-15.4-.7-29.8.3-45.2.7-11.2,9.6-23,21.6-23l101.9-.3Z" fill="#7cb5e0"/><path d="M503.2,302.7c-1.8,21.4-4.9,42.9-11.8,63.4-1.5,4.3-3.2,8.5-5.8,12-3.1,4.2-8.8,6.5-13.2,3.5s-.6-3-1.5-3.9c9.1-23.7,15.1-47.3,18-71.9,19.3,1,11.5-2.1,13.6-3s.4-.2.8-.2Z" fill="#66a4d4"/><path d="M685.6,198.2c.4,2.4.4,5.1-.9,7.1s-3.7,2.7-6.6,2.7l-61.6-.2c-1.1-1.6-.8-7.7-2.3-10.9h70c.9.6,2,.5,1.4,1.3Z" fill="#66a4d4"/><path d="M628.1,119.3v51.8c0,4.6-1.5,8.5-5.9,9.6s-6.3,0-8.8-1.7c0,.4-.1-11.5-.5-12.5s-.8.2-1.1-.1l1.6-1.2c.6-.4-.3-2.9-1.1-2.6-1.4,1.6-3,2.1-5.1,2.1h-35.7c-4.4-.1-4.1-15-3.6-17-1.9.1-2.7,0-2.9-.9h48.3c0,0,.4-20.2.4-20.2.1-7,8.6-9.8,14.4-7.5Z" fill="#62a1d3"/><path d="M555.9,119.8c-.3,0-1-.2-1.1,0l-.2,52.1c0,3.7-1.1,6.9-4.2,8.4s-6.1.8-9.3-.7c-.4,1.3.5,2.9-.6,3.2-1.2-6.1,1.3-17.4-1.8-16.3-.3-.9.9-.5,1.6-1.4l-22.6-.3c-8.6-.1-4.7-4.3-10.8-4.9s-10.9-5.7-11-12.1c14.3-2.1,29.1,0,44.3-1.1l.3-19.9c0-4.3,6.4-11,15.4-7Z" fill="#77b2de"/><path d="M641.5,147.1c-1,2.5-.8,14.3,1.3,16.1s2.7,1.5,4.4,1.5l27,.2c4.5,0,6.2-2.6,8.2-6.1s3.8-6.5,3.4-10.4c4.2,1.3,6.2,6,5.4,10.6s-4.5,7.5-9.2,7.5h-46.6c-.4,4.9,0,9.2-.2,14-.2,6.7-5.8,11.3-12,10.8s-10.5-6.1-9.9-12.3c2.5,1.6,5.8,2.5,8.8,1.7,4.4-1.1,5.9-5.1,5.9-9.6v-51.8c3.6,1.5,7.1,4.4,7.1,9l.2,18.4c2.3.3,4.2.3,6,.3Z" fill="#4d8ac0"/><path d="M555.9,119.8c8.9,4,5.7,12.2,6.3,26.2s2.5.6,2.9,1c.2.9,1,1,2.9.9-.5,2.1-.9,16.9,3.6,16.9h35.7c2.2.1,3.8-.5,5.1-2,.8-.3,1.7,2.2,1.1,2.6l-1.6,1.2h-49.7s-.3,15.6-.3,15.6c-.1,5.7-5.8,9.4-11,9.3s-9.3-3.5-10.3-8.5c1.2-.3.2-1.9.6-3.2,3.1,1.5,6.5,2,9.3.7s4.2-4.7,4.2-8.4l.2-52.1c0-.3.8,0,1.1,0Z" fill="#5490c4"/><path d="M685.8,148.5c.4,3.9-1.4,7-3.4,10.4s-3.8,6.1-8.2,6.1l-27-.2c-1.7,0-3.4-.7-4.4-1.5-2.2-1.8-2.3-13.6-1.3-16.1l40.5-.2c2,0,2.8,1.2,3.9,1.6Z" fill="#6da9d9"/><path d="M495.8,147.8c.2,6.4,4,11.5,11,12.1s2.2,4.7,10.8,4.9l22.6.3c-.7,1-1.8.5-1.6,1.4l-41.3-.3c-4.7,0-7.5-5-7.8-8.5s1.8-9.3,6.2-9.9Z" fill="#66a1d3"/><path d="M457.3,329.3l-.5,49.8c0,3.7-3.4,6.4-6.1,7.3s-6.6-1.1-9.5-3.3l-.3-100.7-.3-16.1c.5.3,1.4,0,1.4-.9.1-7.7,6.2-14,14.4-12.8l.7,14.4.2,62.3Z" fill="url(#e)"/><path d="M484.2,122.9c0,.1-.5,0-1.4-.2l-7.9,25.3c-6.3,20.1-13.7,39.2-23.2,57.4-6.1,11.7-13,23-21,33.9s-12.6,14.5-22.1,9.1c.7-1.7,1-3.6,2.4-5.6,27.1-38.4,44.5-70.6,55.4-116.7.9-4,5.3-5.9,8-6.3,3.9-.6,7.6.6,9.9,3.1Z" fill="#78b2dd"/><path d="M464,242.1v55.3c-1-.2-.8.6-.9,1.5l-.2,30.3h-5.6s-.2-62.2-.2-62.2l-.7-14.4c-8.2-1.2-14.2,5.1-14.4,12.8s-.9,1.2-1.4.9l.6-12.5c1,.4,1.5-.6.9-1.8l2.7-4.6c5.4-9.1,8.8-19.1,18.1-27.1-.4,7.8,1.1,15,1.1,21.7Z" fill="#5992c2"/><path d="M441.2,383.2c2.8,2.1,5.7,4.5,9.5,3.3s6.1-3.6,6.1-7.3l.5-49.8h5.6s.2-30.4.2-30.4c0-.9-.1-1.7.9-1.5v28.9c0,0,.3,61.5.3,61.5,0,6.7-4.5,11.9-10.9,12.4s-11.2-3.7-12.3-10c-.4-2.5,0-4.8,0-6.9Z" fill="#417db3"/><path d="M484.2,122.9c2.4,2.6,4.1,6.1,3.2,10.2-5,23.1-14.2,44.1-23.4,65.2-.7-.7-.8.4-1.4.6-1.4.3-.4.9-.7,2-.6,2.6-2.7,4.4-3.6,6.5-2.2-.8-4.1-2.1-6.5-1.9,9.5-18.2,16.9-37.4,23.2-57.4l7.9-25.3c.9.3,1.3.3,1.4.2Z" fill="#5f9bce"/><path d="M458.3,207.2c-4.7,9.9-10.9,19-16.7,28.8-.3.5-.1,1.1-.2,1.4-.4,0-.8-.1-1.2,0s-.4.7-.3,1c-3.2,6-7.6,11.6-11.6,17.6-3.3,5-8.9,6.7-14.1,4.3s-7.4-7.1-5.6-12c9.6,5.4,16.4-1.3,22.1-9.1s14.9-22.2,21-33.9c2.4-.2,4.3,1.1,6.5,1.9Z" fill="#4a85bb"/><path d="M464,198.3v43.8c0-6.7-1.5-14-1.1-21.7-9.3,7.9-12.7,17.9-18.1,27.1l-2.7,4.6c.6,1.2,0,2.2-.9,1.8.2-5.1-1.3-10.5-.1-15.4l.2-1c0-.3,0-.9.2-1.4,5.8-9.7,12-18.9,16.7-28.8s3-3.9,3.6-6.5-.7-1.7.7-2,.8-1.3,1.4-.6Z" fill="#2e75b2"/><path d="M441.3,237.4l-.2,1c-.4.3-1,.5-1.3,0,0-.4-.1-.9.3-1s.8,0,1.2,0Z" fill="#fff"/><path d="M195,237.6c.6,1.4.8,2.9-.5,4.5-8.9,10.7-18.5,19.8-29,28.7s-33.5,26.9-45.2,25.7c-2.5-11.2,7.1-14,15.8-19.6l5.9-3.8c1.6-1.1,3.6-1.7,4.7-3.1s3.8-2.9,5.6-4.3c8.1-6.1,14.3-12.3,21.8-20.5l4.5-4.9c3.7-4.1,8.1-7.8,13.8-5.7s1.9,2.5,2.7,3Z" fill="#e7e6e6"/><path d="M120.3,296.5c11.7,1.2,35.8-17.8,45.2-25.7s20.1-18,29-28.7,1.1-3.1.5-4.5c1.3.9,2.2,1.9,3.3,3.1,3.3,3.7-6,13.6-8.1,16-14.7,16.3-33.8,32.9-52.6,44.1-2.7,1.6-7.4,3.3-11,1.9s-4.9-3.3-6.3-6.2Z" fill="#d0cece"/><path d="M164.2,200.6c6.1,3,17.7,10.4,13.5,18.8s-6.9,7.5-11,5.6c-6-2.7-14.4-9.5-20.3-13.6l-25.2-17.4c-1.8-1.3-5.8-8.2-2.2-9.3-1.1-1.5-.5-2.7.7-2.1l36.5,27.5c2.8,2.1,6.1,2,8.2,0,4-3.9.7-7.2-.2-9.6Z" fill="#d1cfce"/><path d="M164.2,200.6c.9,2.4,4.2,5.7.2,9.6s-5.4,2.1-8.2,0l-36.5-27.5c.8-3.4,3.9-5.8,7.8-5.2,8.1,1.1,4,.5,11.7,5.3.7.5,22.8,16.5,21.2,14.4.2.3.3.3.3,1.9,2-.5,2.8,1.1,3.6,1.5Z" fill="#e6e5e4"/><path d="M183.5,145.5c2.6.4,3.9,2.8,6.1,3.9,3.4,1.6,4.6,4.4,5.5,8,1.3,5.3-5.9,11.1-10,11s-7.2-4-10.3-5.9c-6.1-3.7-11.4-7.9-17.4-12.1l-13.7-9.5c-3.4-2.4-8.8-5.2-7.3-11s-.5-2.2.2-2.8.3-.1.9-.4c2.3.7,3.8,2.7,5.9,4.3l30.7,23.2c2.6,2,5.6,1.7,7.8.1s3.4-4.8,1.8-7.3c-1,.2-1.1-.7-.7-.9s.5-.3.5-.6Z" fill="#d1cfcf"/><path d="M183.5,145.5c0,.3-.3.5-.5.6-.3.2-.3,1,.7.9,1.6,2.4.5,5.5-1.8,7.3s-5.1,1.9-7.8-.1l-30.7-23.2c-2.1-1.6-3.6-3.6-5.9-4.3.8-1,1.5-1.6,2.1-2.4,6.8-8.9,18.3,4.7,24.5,7.8s4.5,3,6.8,4.9,14.2,8.8,12.6,8.5Z" fill="#e6e5e5"/><path d="M285.5,326.1c-.8,2.7-1.7,5.7-.4,8.5s4.7,3.5,8.3,3.5l83.1-.2c3.1,0,5.3-2,6.2-3.7s.3-6.6-1.4-7.2c.2-.4-.2-1,0-1.4,5.8.5,10.1,4.9,10.2,10.5s-3.5,10.6-9.6,10.6l-115.2-.2c-.7-.7.9-1.5.9-2.1l-.5-18.4-4.2-.2v21.3s-.5,45.9-.5,45.9c0,6-6.9,9.3-11.6,9.1-7.6-.3-11.3-8-10.1-12.1s.7.2,1.1,0c2,2.8,5.4,4.6,9.4,3.7s4.3-2.3,4.2-4.5l-.4-91.9c3.7.4,7.5,2.1,7.6,8.2l.3,19.5,22.5,1.1Z" fill="#bebdbd"/><path d="M255.1,297.3l.4,91.9c0,2.2-2.7,4.2-4.2,4.5-4,.9-7.5-.9-9.4-3.7-1.2-12.8.2-25.6-.3-38.9,0-2.1,0-4.3-1.2-5.5v-20.4c0-5,2-10.8,1.1-16.9-.5-3.2.9-5.7,2.3-7.7,3.5-5.4,7.3-3.8,11.4-3.3Z" fill="#dad9da"/><path d="M220.7,326.1c1.4,3.3,1.4,11.4-3.7,11.4l-91.9.3c-2.9,0-4.9-1.8-7.3-1.5-2.4-4.4,6.9-11.2,9-11.2h82c4.3.1,8.1,1.4,11.9.9Z" fill="#e2e1e2"/><path d="M381.3,327c1.7.6,2.5,5.2,1.4,7.2s-3.1,3.7-6.2,3.7l-83.1.2c-3.6,0-6.7,0-8.3-3.5s-.4-5.8.4-8.5c2.5-1.8,7,2.4,13.4.3s5.5,2.2,16.1.1,2.5-.9,4.5-.2c7.9,2.5,13.1-2.3,16.7.3s4.3-.9,6.1-.9h37.8c.3,0,.9,1.1,1.2,1.2Z" fill="#cfcecf"/><path d="M234.9,326.2c1.1,6,1.1,12.8-.4,18.6-.3.7-2.2,1.2-2.8,1.2-11.2.2-103.6.8-106.4-.2-7.2-2.6-8.2-10.9-7.5-9.5,2.4-.3,4.4,1.5,7.3,1.5l91.9-.3c5.1,0,5.1-8.1,3.7-11.4,4.5-.5,9.7-.1,14.1,0Z" fill="#cfcece"/><path d="M240.5,325.2v20.4c1.6,1.7-10.4,1.5-8.8.3.6,0,2.5-.4,2.8-1.2,1.5-5.9,1.5-12.7.4-18.6.8-1.7,3.6-1.3,5.6-.9Z" fill="#b6b4b4"/><path d="M266.9,346.6l-3.8.6v-21.3s4.2.2,4.2.2l.5,18.4c0,.6-1.6,1.4-.9,2.1Z" fill="#a6a5a5"/><path d="M318.6,151.1c-2.5,5.7-4,11.7-4.7,17.8-.9,7.5-.4,15.1-.3,22.5v17.1c.1,6.9-.2,14,.1,20.9,4-.9,6.6,0,9.4,0-.2,3.7-1,7.2-.3,11.2l46-.5c4.1,0,5.4-6,4.3-9,2.2.4,3.6,3.3,3.8,5.1.6,4.6-1.8,8.2-6.4,10.3l-56.7-.2-.2,23c-.7,1.3-1.3,2.6,0,2.6h68.6c1.3,0,1.8,1.5,3.2,1.2.8,2.3.8,4.7-.7,6.8s-3.4,3.1-6.5,3.1h-142.3c-13.6,0-17.7-9.1-20-20.7s-.4-1.8-1.2-1.6c-1.1-17.7-1.2-35.7-.3-53.7l.3-7c.3,0,.6-.1,1,0,.4,1.1-1.2,2.3.8,3.5,1.4-2.8,8.1-4.2,9.4-1.4l.7,64.9c0,4.6,6.5,5.4,10,5.3l57.4-.3c.5-.7,1.3-3.5,1-5,3.9,1.6,10.2-1.7,10.2-7.2v-81.5c0-23.7,8.2-38.3,21.7-56.2.9-.4,5,4.4,4.3,6.8s-2.7,4.7-2,5c-1.2-.5-10.2,12.1-10.6,14.8s.5,1.8.1,2.6Z" fill="#d2d1d1"/><path d="M326.7,122.1c-13.5,17.9-21.6,32.5-21.6,56.2v81.5c0,5.5-6.4,8.9-10.3,7.2-1.9-3.5,1.4-19.9-1.7-20.9l-.3-5.6-58.9-.2c-.7-4.3.3-7.6,0-10.7.8-.6,1.3-.5,2.5-.5l57.8-.2c.2-6.6-.2-12.5.3-18.8s-.6-2-1.9-2.2c.6-1.5.5-3.3-.1-5.3h-58.6c-.5-4.3-.6-7.9,0-11.4,2.3-.2,5.3-.9,7.7.2s5.3-.2,8-.2l23.3-.4c1.5,0,2.6,1,3.9,1,4.5,0,16,.9,17.3-1.6,0,.1,1.3-20.7-.8-21.2l3.8-18.2c.5-.1,1.7.2,1.4-.3-.6-1,.8-1.2.9-1.6,1.4-6.7,5.7-11.5,8.9-18.1s7.5-12.8,13.5-11.9,4.2.9,4.8,3.1Z" fill="#d7d7d7"/><path d="M385.2,273.2c4.5-1,7.1,4.9,6.7,9.1s-3.5,8.6-8.4,8.6h-150.1c-11.3.1-18.9-8.6-19.6-19.2s.7-7.8.7-11c.8-.3,1,.6,1.2,1.6,2.3,11.7,6.4,20.8,20,20.8h142.3c3.1,0,5.1-1.2,6.5-3.1s1.4-4.5.7-6.8Z" fill="#bebdbd"/><path d="M255.8,122.8c-12.3,27.3-29.5,52-52.5,72-4.5,4-8.4,7.3-13.7,9.3-1-1.1-2.4-1.3-2.8-3.8s-2.2-1.9-1.5-3.1l1.4-2.3c5.1-8.4,9.5-9.2,12.7-13.7s7.1-7.3,9.6-10.2l12-14.5c6.2-7.5,13.2-18.4,16.7-26.6,2.5-5.7,5.7-12,12.2-11.4s3.9,2.5,5.8,4.2Z" fill="#ecebec"/><path d="M293.1,151.5l-.6,11.2h-52c-2,1.6-2.6,5.3-4.8,6.1s-1.9,2.5-3,3.9c-5.3,7-11.4,13.5-17.6,20s-.7,1.8-1,2.6c-5.5-2.1-13.7,20.5-24.4,8.8,5.3-2,9.1-5.4,13.7-9.3,23-20,40.1-44.7,52.5-72,9.8,8.5-8.5,20.2-6.9,28.3l44.3.5Z" fill="#d2d1d1"/><path d="M385.9,153.3c-.2.6-.4,1.3-.4,2.3,0,4.7-3.6,7.2-8.1,7.2l-53.9.2c-1.7-3.9-.9-7.7-.6-11.4l56-.6c3.3,0,4.9,1.2,7,2.3Z" fill="#e0dfdf"/><path d="M322.9,151.6c-.3,3.7-1.2,7.5.6,11.4l53.9-.2c4.5,0,8-2.6,8.1-7.2s.2-1.6.4-2.3c2.7,1.3,6.5,4.3,5.1,8.6s-5.3,7.5-9.7,7.5h-65.4c-.9,0-1.4-.9-2.1-.4.7-6.1,2.2-12.2,4.7-17.8,1.3.2,3.1.5,4.4.5Z" fill="#cecdcd"/><path d="M374.3,194.5c-1.5.2.7,8.3-7,8.4l-44.4.2c-1.6-2.7-.6-7.4-.6-10.7,4.7-.7,9.4-.4,14.9-.4s1.2-.9,1.8-1.1c-2.2.6,11.1,1.6,15.9.6s3.3-.4,5.5-.2l10.5.9c1.6.1,2.7,1.4,3.5,2.2Z" fill="#dddcdc"/><path d="M372.9,231.2c1.1,3-.2,9-4.3,9l-46,.5c-.6-4,.1-7.5.3-11.2l46.7-.4c1.5,0,2.3,1.9,3.3,2.1Z" fill="#dcdbdb"/><path d="M297.3,150.9l-3.8,18.2c-.3.7-1.4.9-2.5.9h-53.7c-1,0-1.6-.3-1.5-1.1,2.1-.8,2.8-4.4,4.8-6h52s.6-11.3.6-11.3c1-1.4,2.9-.4,4.2-.7Z" fill="#bebdbd"/><path d="M323.7,208c-1.2-1.3-.6-3.6-.8-4.9l44.4-.2c7.8,0,5.6-8.2,7-8.4,2.6,1.1,3.1,3.1,2.5,6.3-.8,4-5,5.3-8.8,6.4l-3.9,1.2c-12.5,3.9-27.2.6-40.5-.5Z" fill="#d0cfcf"/><path d="M233.4,190.1c-11.3,1-10.3,1.5-17.9,9.9-.3,0-.7,0-1,0,0-1.5-1-3-.5-4.7s0-1.6,1-2.6c6.2-6.5,12.3-13,17.6-20,1.6-1.6.9,16.7.8,17.3Z" fill="#a09f9e"/><path d="M322.3,192.4c0,3.3-1,7.9.6,10.7.2,1.3-.5,3.6.8,4.9-3.1-.2-6.8,1.5-10.1.6v-17.1c.4-.5,10-1.3,8.7.9Z" fill="#bebdbe"/><path d="M233.4,190.1c.3.3.7.7.6,1.2-.6,3.5-.5,7.1,0,11.5h58.6c.6,1.9.7,3.7.1,5.2,0,.4-.4.6-1.1.6l-57.9.2c-.3,7.4-.1,14.2.3,20.9s-.8,6.4,0,10.7l58.9.2.3,5.6c-.3,1-1.7.9-3,.9h-56.3c-.2,7.4-.3,14.3,0,21.4,0,1.9,2.7,2.1,2.6,3.9-3.5,0-9.9-.7-10-5.3l-.7-64.9c-1.3-2.8-8-1.4-9.4,1.4-2-1.2-.4-2.4-.8-3.5,7.6-8.4,6.6-8.9,17.9-9.9Z" fill="#bcbbbb"/></g><rect x="337.5" y="475.4" width="399.9" height="222.8" rx="39.2" ry="39.2" fill="#666" stroke="#000" stroke-linecap="round" stroke-linejoin="round" stroke-width=".2"/><circle cx="580.4" cy="589.6" r="78.1" fill="#ccc"/><rect x="598.8" y="452.6" width="63.2" height="38.6" fill="#666"/></svg>